<svg width="48" height="48" viewBox="0 0 48 48" fill="none" xmlns="http://www.w3.org/2000/svg">
<path d="M0 10C0 4.47715 4.47715 0 10 0H38C43.5229 0 48 4.47715 48 10V38C48 43.5229 43.5228 48 38 48H10C4.47715 48 0 43.5228 0 38V10Z" fill="#11198C"/>
<path d="M33.7126 13.9261C34.0798 13.688 34.3366 13.3168 34.4693 12.9033C34.606 12.2316 34.5445 11.9707 34.5252 11.8886L34.5238 11.8829C34.4253 11.8925 34.1783 12.0071 33.9769 12.2414C33.8305 12.4164 33.5814 12.4612 33.3827 12.3586C33.184 12.256 33.0795 12.0298 33.1278 11.8125C33.2242 11.4039 33.157 11.0432 32.9544 10.7748C32.7106 10.4749 32.4393 10.3821 32.1983 10.3777C31.5535 10.339 30.9837 10.3087 30.6673 10.6768C30.5922 11.3525 30.6094 12.1377 30.7256 12.8615C30.739 13.4808 30.9397 14.3374 31.5342 14.5234C32.3333 14.7187 33.1084 14.3256 33.7126 13.9261Z" fill="white"/>
<path d="M33.2279 15.293C32.4977 15.5802 31.8106 15.6396 31.1851 15.4431C31.1463 15.4298 31.1075 15.4166 31.0637 15.3929C31.4253 15.8802 31.9133 16.099 32.4643 15.8805C32.7268 15.7711 32.993 15.5244 33.2279 15.293Z" fill="white"/>
<path d="M34.8988 10.9633C34.8059 9.23442 33.6379 8.82641 31.7136 9.06032C31.4335 9.09444 31.161 9.15711 31.0086 9.4254C31.4133 9.34675 31.8283 9.36864 32.2193 9.38926C32.2496 9.39085 32.2796 9.39244 32.3095 9.39397C33.1384 9.42626 33.9335 10.1397 34.0877 10.9804C34.358 10.8737 34.6405 10.8577 34.8988 10.9633Z" fill="white"/>
<path d="M20.4198 22.7938C20.7755 22.0322 21.541 21.8696 22.3452 21.7463C23.5615 21.608 24.7299 21.2801 25.8352 20.7575C25.4342 20.3347 25.1467 19.6562 25.0217 19.0593C23.0253 19.9093 21.0617 20.8658 19.1877 21.9655C19.1628 21.9808 19.1375 21.996 19.1121 22.0114C18.758 22.2258 18.3738 22.4586 18.4191 22.8457C18.5587 23.2225 19.2924 23.508 19.5117 23.2972C19.6683 23.1429 19.9147 23.106 20.1082 23.2241C20.1279 23.2355 20.1554 23.2471 20.1859 23.2599C20.2113 23.2706 20.2387 23.2821 20.2657 23.2952C20.2944 23.2226 20.3125 23.1498 20.3311 23.0751C20.3535 22.9852 20.3766 22.8925 20.4198 22.7938Z" fill="white"/>
<path d="M19.8448 29.1606C19.8572 29.2255 19.875 29.2749 19.9109 29.3218C20.1233 29.6628 20.3827 29.968 20.702 30.2244C21.0795 29.6521 21.4752 29.0773 21.9765 28.5733C21.9077 28.0909 21.6544 27.6666 21.2393 27.4121C20.639 27.9775 20.1372 28.5333 19.8448 29.1606Z" fill="white"/>
<path d="M23.4842 32.9767C24.0794 32.4009 24.6361 31.786 25.1772 31.1657C25.3628 30.9521 25.5639 30.7438 25.7803 30.5666C25.6929 30.4706 25.6064 30.3733 25.5199 30.2761C24.9156 29.5961 24.3124 28.9175 23.3825 28.6904C22.5232 29.2538 21.9753 30.0709 21.3906 30.9707C22.2777 31.1874 23.2001 32.1869 23.4842 32.9767Z" fill="white"/>
<path d="M12.2146 38.5357C12.072 38.5476 11.898 38.6006 11.8584 38.691C11.866 38.7196 11.9737 38.8603 12.3405 39.0031C13.4875 39.4472 14.2601 39.72 15.4905 39.7684L16.4242 38.3039C15.845 38.1491 15.3318 37.8265 14.9388 37.3804C14.4054 37.6742 13.8673 37.9059 13.3396 38.1324C13.2455 38.1699 13.1472 38.2141 13.0467 38.2593C12.7726 38.3825 12.4821 38.5131 12.2146 38.5357Z" fill="white"/>
<path d="M15.7978 36.8688C16.1759 37.2319 16.6978 37.4276 17.2264 37.4265C19.4135 36.3733 21.3032 34.9239 22.5815 33.7937C22.6442 33.3822 22.5095 33.0418 22.0264 32.5302C21.7025 32.1857 21.2624 31.8014 20.7486 31.9115C19.4335 33.7824 17.5796 35.6337 15.7978 36.8688Z" fill="white"/>
<path d="M25.6127 32.1459C25.2649 32.5552 24.8966 32.9487 24.5153 33.3293C24.536 33.3537 24.5585 33.3801 24.5818 33.4074C24.6629 33.5023 24.7531 33.6078 24.8028 33.6787C25.2385 33.2908 25.5971 32.8246 25.8602 32.3084C25.8338 32.2913 25.8071 32.275 25.7807 32.2588C25.7219 32.2228 25.6642 32.1874 25.6127 32.1459Z" fill="white"/>
<path d="M27.4371 32.5647C27.3289 32.5994 27.2156 32.6358 27.1038 32.6471C26.9976 32.654 26.8912 32.661 26.8007 32.6473C26.4269 33.4114 25.8827 34.0912 25.2153 34.625C25.3058 35.0406 25.3121 35.5373 25.3184 36.0404C25.3305 36.9979 25.3429 37.9782 25.9371 38.4652C26.1603 38.4203 26.3787 37.9841 26.6035 36.7189C26.6338 36.5443 26.6488 36.3666 26.664 36.187C26.6801 35.9966 26.6964 35.804 26.7312 35.6109C26.8451 34.9733 27.1222 34.416 27.3983 33.8607C27.4897 33.6768 27.581 33.4932 27.6662 33.3069C27.7796 33.0513 27.9407 32.6561 27.7191 32.4937C27.6331 32.5018 27.5373 32.5325 27.4371 32.5647Z" fill="white"/>
<path d="M28.9187 28.9491L28.9435 28.9379C29.5363 28.673 30.2782 28.2253 30.6382 27.5778C29.5762 25.8466 27.1274 24.8794 25.1617 24.4238C24.6133 24.8698 24.0411 25.2751 23.4692 25.6803C22.978 26.0283 22.487 26.3761 22.0113 26.7495C22.3718 27.0373 22.6461 27.4255 22.8059 27.8698C23.4231 27.4574 24.1071 27.1284 24.7882 26.8331C25.3937 26.6072 25.7575 27.4676 25.1699 27.7429C24.9359 27.8448 24.7097 27.9492 24.4808 28.0615C25.0975 28.3849 25.6015 28.8863 26.0561 29.4054C26.0675 29.4202 26.1342 29.4928 26.22 29.5863C26.4061 29.7888 26.6822 30.0893 26.6803 30.1124C27.4019 29.6308 28.1401 29.299 28.9187 28.9491Z" fill="white"/>
<path d="M34.9834 19.149C35.119 18.7018 35.728 18.6935 35.9453 19.0709L37.113 21.2019C37.5832 21.0423 38.0434 20.836 38.4805 20.5958C38.3306 19.2111 37.592 17.8762 36.9327 16.6896C36.922 16.6712 36.9114 16.6528 36.9007 16.6343C36.7862 16.4359 36.671 16.2362 36.5228 16.0905C36.3761 15.9624 36.211 15.8627 36.0329 15.7758C35.5555 15.526 35.0701 15.2994 34.5741 15.1039C34.372 15.4417 34.102 15.8516 33.7785 16.1393C33.762 16.1539 33.7454 16.1687 33.7287 16.1835C33.4804 16.4044 33.2012 16.6527 32.8432 16.798C31.606 17.3015 30.4484 16.5593 29.9339 15.4049C28.4606 15.8773 27.953 16.5073 27.407 17.1851C27.0375 17.6436 26.6504 18.124 25.9347 18.5922C26.0003 19.1601 26.2742 19.9292 26.72 20.2461C26.9017 19.8666 27.0938 19.482 27.3143 19.1158C27.8682 18.1796 28.5287 17.5395 29.2671 17.2032C29.5142 17.0885 29.8061 17.1969 29.9208 17.444C30.0355 17.691 29.927 17.983 29.68 18.0976C28.6315 18.5495 27.957 19.9353 27.4167 21.0454C27.397 21.0859 27.3775 21.126 27.3581 21.1657C26.9133 22.0613 26.3969 22.8372 25.7255 23.5601C27.6471 24.018 29.9841 25.0335 31.1637 26.6231C31.6765 24.9714 32.4115 23.4044 33.3631 21.9633C33.4863 21.776 33.6152 21.5884 33.7447 21.3998C34.2409 20.6774 34.7472 19.9403 34.9834 19.149Z" fill="white"/>
<path d="M41.7614 29.2595C41.9635 29.2507 42.026 29.2201 42.0468 29.2099C42.0808 29.1609 42.1071 29.1093 42.1334 29.0577C42.2719 28.5768 42.2628 28.0715 42.0955 27.5987C41.9662 27.2168 41.7332 26.86 41.4796 26.4876C40.9745 25.7867 40.6158 24.9367 40.3525 24.1366C40.0338 23.1185 39.5218 21.9823 38.7451 21.5695C38.3861 21.7585 38.0117 21.9162 37.635 22.0558C37.5199 22.8737 38.2177 23.7704 38.9016 24.4545C39.5852 25.1904 40.6644 26.3647 40.4761 27.5991C40.7372 27.6711 41.0294 27.7537 41.0814 28.0572C41.1321 28.3109 41.0931 28.5514 41.0551 28.7853C41.0333 28.9199 41.0118 29.0523 41.008 29.1838C41.2458 29.2478 41.51 29.2602 41.7614 29.2595Z" fill="white"/>
<path fill-rule="evenodd" clip-rule="evenodd" d="M6.31214 28.2148C5.55206 29.6005 6.14695 31.4795 7.56331 32.177C8.07389 32.4419 8.62351 32.547 9.14286 32.504C9.13942 32.4783 9.14561 32.446 9.15833 32.4233L9.61162 31.414C9.62744 31.3752 9.65788 31.3476 9.69485 31.3295L10.9865 30.7984C11.0589 30.7704 11.1301 30.7924 11.1789 30.8436L11.4185 31.1236C11.7705 30.5551 11.9182 29.8722 11.8353 29.2121L11.5247 29.5209C11.4943 29.5485 11.4493 29.565 11.4073 29.5653C11.3669 29.5576 11.3199 29.5403 11.2922 29.5099L10.3319 28.5315C10.3043 28.5011 10.2877 28.4561 10.2874 28.4142L10.2929 27.1185C10.2925 27.0766 10.318 27.0312 10.3484 27.0036C8.96181 26.1947 7.02493 26.7698 6.31214 28.2148ZM9.12991 28.7701L7.80367 28.0397C7.74365 28.0031 7.67434 28.015 7.61656 28.0541C7.59575 28.0753 7.22585 28.4312 6.50841 29.114C6.45716 29.1627 6.44324 29.2354 6.47282 29.2996L7.06889 30.7354C7.09847 30.7996 7.16503 30.8458 7.24241 30.8355L8.7339 30.6605C8.80321 30.6487 8.86254 30.6015 8.87646 30.5288L9.19441 28.9582C9.22605 28.8806 9.18993 28.8067 9.12991 28.7701Z" fill="white"/>
<path d="M7.74131 22.1655C7.64596 21.1781 7.88433 20.7339 8.57562 20.1415L12.1751 16.8093C12.6757 16.3403 12.8425 16.0935 12.8425 15.427V14.1188C12.8425 13.6005 12.1751 12.9094 11.6745 12.9094H8.12271C7.73641 12.9094 7.20928 13.197 7.02315 14.3664C6.93831 14.8995 6.51711 15.3406 5.97734 15.3406C5.43757 15.3406 4.99116 14.9 5.05567 14.3641C5.3548 11.8793 6.80752 10.9594 8.14655 10.9594H11.6507C13.1524 10.9594 14.7972 12.5638 14.7972 14.0941V15.3777C14.7972 16.5624 14.4158 17.2042 13.653 17.92L9.83901 21.425C9.60064 21.6471 9.52912 21.8446 9.45761 22.2148V22.8377C9.45761 23.3116 9.0734 23.6958 8.59946 23.6958C8.12551 23.6958 7.74131 23.3116 7.74131 22.8377V22.1655Z" fill="white"/>
</svg>
